PathFileType	4	(X/Y/Z)	OpenSim_Sub01_CSStiffKnee_Accel.trc
DataRate	CameraRate	NumFrames	NumMarkers	Units	OrigDataRate	OrigDataStartFrame	OrigNumFrames
100	100	27	8	m	100	3364	5381
Frame#	Time	torso_imu_offset_imu	pelvis_imu_offset_imu	tibia_r_imu_offset_imu	femur_r_imu_offset_imu	tibia_l_imu_offset_imu	femur_l_imu_offset_imu	toes_r_imu_offset_imu	toes_l_imu_offset_imu
				X1	Y1	Z1	X2	Y2	Z2	X3	Y3	Z3	X4	Y4	Z4	X5	Y5	Z5	X6	Y6	Z6	X7	Y7	Z7	X8		Y8	Z8	

3364	33.63000000	8.79567678	1.17188785	6.29773771	8.15219911	1.81737985	4.17143498	9.68820606	4.91043353	-1.74974559	10.57807137	1.43613615	0.82287817	8.96580517	-9.15446925	-1.98543079	8.49109132	-5.19443712	-4.32439505	12.81655750	-4.74649417	8.39088152	7.55447959	1.28819232	11.58845528
3365	33.64000000	8.89257377	1.30514264	6.18844399	8.34504634	1.95763879	4.12847970	8.87088502	7.28821053	-1.81775109	11.44787427	2.45893294	0.69782424	8.99091321	-8.66861216	-1.22573605	9.00368623	-4.09597600	-4.74405978	9.73068869	-9.74923456	11.37831342	6.49670546	1.02960712	10.85663393
3366	33.65000000	9.19710481	1.24307318	6.15016883	8.89252543	1.66505309	4.26819200	8.17292865	9.18066162	-1.70818962	12.41213129	3.41021470	0.58077722	8.80207230	-6.47561812	-0.04271544	9.69624447	-1.85609160	-4.19410994	5.70945670	-16.07879612	15.86736211	6.09473482	1.06413348	11.00322407
3367	33.66000000	9.62752253	1.02194624	6.18283427	9.52228665	1.09782154	4.42677041	7.48089082	9.34203404	-1.01219635	12.99904095	3.77265074	0.61269049	8.90397398	-4.14641930	0.68473151	10.42364453	0.46647606	-3.22667380	2.19868028	-18.29777323	18.51755912	5.87435516	1.10955127	11.32738593
3368	33.67000000	10.06285772	0.69431553	6.27284743	10.01109075	0.41211841	4.49092585	6.71496985	7.30289536	0.29480555	12.92371730	3.32065729	0.87401453	9.49595258	-2.78277777	0.49696424	11.02085992	2.13666954	-2.27682069	0.11286892	-13.87787854	17.67179100	5.54720166	1.00952276	11.37593057
3369	33.68000000	10.29491840	0.34754041	6.37693378	10.24845787	-0.24295701	4.46281649	5.87198831	4.33921485	1.37496600	12.32269762	2.48513655	1.30906368	10.08749169	-2.40315113	-0.11755575	11.28028976	3.15657167	-1.50337439	-0.83784925	-6.86264020	15.48315728	5.25763039	0.89698440	11.26990350
3370	33.69000000	10.13008066	0.06744762	6.45028511	10.15934239	-0.73112705	4.36139947	4.98697887	1.89558486	1.38546373	11.39684868	1.75251644	1.83715816	10.15633587	-2.83889930	-0.58584330	11.01792788	3.62467067	-1.01859019	-1.08821605	-1.82213204	14.39567699	5.18671496	0.92672147	11.19225070
3371	33.70000000	9.64695348	-0.12457673	6.47372102	9.87699942	-1.03859709	4.21779507	4.38240723	0.71932862	0.63684063	10.42248417	1.26543670	2.30975104	9.81618776	-3.50307513	-0.78668313	10.35282042	3.60503036	-0.83984250	-0.88621127	0.41757609	14.53440341	5.29013899	1.07500504	11.16283380
3372	33.71000000	9.08439822	-0.24513602	6.44320110	9.65692811	-1.22365976	4.07028086	4.54854490	1.14445375	0.11795530	9.71972720	0.96386401	2.53876682	9.55491662	-3.56418140	-0.86518513	9.58252554	3.14162999	-0.92839154	-0.36959250	1.23737525	14.65878281	5.39097738	1.21307739	11.10551507
3373	33.72000000	8.60906797	-0.30558902	6.35933209	9.62006974	-1.30924441	3.95334997	5.60382390	3.08323771	0.38006260	9.46083462	0.81555859	2.44359958	9.65015246	-2.66001189	-0.92861808	8.94911614	2.32565394	-1.21519104	0.33434191	1.66499975	14.03174955	5.38675880	1.27124084	10.98779364
3374	33.73000000	8.22187824	-0.30449691	6.23265312	9.58360543	-1.23729652	3.89284497	6.83216330	5.51888439	0.97844426	9.48687055	0.85614051	2.18457694	9.89963465	-1.48252691	-0.99213651	8.56571459	1.35419327	-1.56519102	1.11845222	1.87655031	13.07903736	5.34496255	1.31460548	10.87730266
3375	33.74000000	7.90603830	-0.24122851	6.07674595	9.34469127	-0.95098429	3.90670742	7.47242923	7.37290636	1.37881208	9.60305505	1.11788246	1.94135686	10.05123156	-0.80478612	-1.05853680	8.51132556	0.43504629	-1.84457086	1.88664228	1.92092453	12.33687240	5.34934440	1.41850285	10.84562171
3376	33.75000000	7.69347573	-0.14136684	5.92272931	8.91806072	-0.51922095	3.94339536	7.46407002	8.22771774	1.51342031	9.70719537	1.50371026	1.75660798	10.00829899	-0.76457186	-1.13170430	8.69286054	-0.26138710	-2.02439857	2.62866680	1.72343019	11.85790231	5.41429626	1.57548037	10.86519951
3377	33.76000000	7.64463053	-0.04588877	5.81196310	8.44671874	-0.08491979	3.91062476	7.15967867	8.05625434	1.58934395	9.75180398	1.84051923	1.59228871	9.76616889	-1.12502431	-1.21611333	8.91597883	-0.58722222	-2.13752592	3.38482866	1.13715514	11.41002024	5.51331920	1.72932213	10.85019552
3378	33.77000000	7.77180465	0.01910530	5.76373535	8.05677369	0.24679155	3.76846314	6.88300265	6.96905145	1.72939749	9.70786340	2.01299451	1.43181503	9.37368792	-1.67354710	-1.30490054	9.04302581	-0.49071215	-2.19747794	4.17505585	0.16082250	10.86997196	5.62577714	1.83905050	10.75486355
3379	33.78000000	7.97906890	0.06115235	5.74779061	7.83293394	0.45722950	3.59496334	6.88151274	5.37240347	1.86046212	9.58599003	2.03695842	1.30880812	8.99645606	-2.26248650	-1.36588823	9.06574860	-0.13396998	-2.17287482	4.97235672	-0.87981056	10.36559458	5.74529473	1.89909473	10.62459958
3380	33.79000000	8.16290956	0.09270939	5.73051467	7.84116912	0.54074107	3.47507410	7.35810928	3.70224878	1.89508691	9.40685330	1.94301898	1.26228857	8.79939883	-2.75872782	-1.36390734	8.99773835	0.29993814	-2.03540033	5.74677809	-1.65014852	10.04169655	5.86564811	1.90828469	10.51440989
3381	33.80000000	8.29269609	0.13003964	5.71282384	8.01182685	0.50544637	3.40012678	8.16211143	2.28742727	1.87155183	9.23954375	1.73124660	1.31688926	8.77739189	-3.08853693	-1.26826746	8.89734008	0.71036517	-1.85109099	6.50333267	-2.18117089	9.86755428	5.96225684	1.86142167	10.45120169
3382	33.81000000	8.38077454	0.19157125	5.71598002	8.19550770	0.36762516	3.30639760	8.93485142	1.39311884	1.90202628	9.18140563	1.38382948	1.48856911	8.82516715	-3.21328249	-1.05119980	8.84904486	1.04539193	-1.74137696	7.26743965	-2.71888842	9.70912438	5.99982209	1.75105823	10.44521228
3383	33.82000000	8.43569568	0.27868617	5.75608678	8.29745694	0.15093432	3.16635664	9.44363430	1.18243199	2.03921719	9.26399326	0.91099807	1.75375670	8.87358475	-3.10993846	-0.74422108	8.88333182	1.27598619	-1.77129290	8.01782277	-3.37675614	9.48077528	5.96643265	1.59681765	10.48676387
3384	33.83000000	8.45630256	0.35466930	5.83715142	8.34714669	-0.10474432	3.03481995	9.74284240	1.59256252	2.20102390	9.37125114	0.38606828	2.00092786	8.93700468	-2.78928614	-0.51104560	8.90941096	1.42277750	-1.87844252	8.62842721	-3.96626059	9.20787483	5.90267048	1.47879010	10.52222338
3385	33.84000000	8.44202629	0.38256650	5.95990483	8.39114236	-0.35983291	2.97207432	9.92425513	2.51030086	2.29321110	9.37868736	-0.11064032	2.11531555	9.03928576	-2.28179702	-0.50883339	8.83704745	1.51476232	-1.98406169	8.97499087	-4.27182050	8.93148533	5.85053953	1.47297481	10.50105781
3386	33.85000000	8.41192951	0.37617160	6.10815055	8.47894734	-0.60055546	2.97985900	10.06472035	3.61763877	2.28457702	9.28090531	-0.51462629	2.07153161	9.18571191	-1.77399275	-0.64242063	8.75113280	1.59794417	-2.01841386	9.09811956	-4.22022284	8.69964311	5.79339867	1.52867429	10.46613673
3387	33.86000000	8.39659726	0.37910366	6.25569907	8.66159640	-0.82829637	3.02537423	10.23205593	4.47662314	2.18113640	9.14272193	-0.77092909	1.89696252	9.37056628	-1.54374501	-0.66836119	8.83943094	1.72810572	-1.91740790	9.13582145	-3.82274735	8.56446322	5.68022731	1.52071389	10.51513962
3388	33.87000000	8.41423420	0.41133084	6.37479166	8.94734306	-1.03164517	3.07555100	10.44708327	4.83331936	1.99577841	9.02005310	-0.86903303	1.62942000	9.57895283	-1.71934418	-0.46324134	9.19719507	1.90728930	-1.68479009	9.25685487	-3.19843407	8.57058538	5.50576732	1.37958609	10.68441180
3389	33.88000000	8.45508864	0.43918971	6.43445634	9.24894025	-1.17020535	3.09771567	10.62602245	4.84784645	1.75565774	8.94692912	-0.89731555	1.32845516	9.77581162	-2.09269016	-0.17574799	9.71029529	2.01734616	-1.47550737	9.69578106	-2.70432845	8.74585211	5.36786037	1.16213938	10.87186513
3390	33.89000000	8.50787397	0.42647705	6.40941190	9.47288572	-1.20621707	3.06382482	10.68406290	4.72757663	1.48633497	8.95105802	-0.95052435	1.05706176	9.92451781	-2.42329860	0.01816951	10.23001051	1.93398160	-1.44196793	10.63840924	-2.66934820	9.09273707	5.36521078	0.94148688	10.96679269
